<svg width="1600" height="900" viewBox="0 0 1600 900" fill="none" xmlns="http://www.w3.org/2000/svg">
  <rect width="1600" height="900" fill="#F4E7D0"/>
  <circle cx="1280" cy="120" r="180" fill="#F6C64F"/>
  <circle cx="260" cy="760" r="230" fill="#7FB55B"/>
  <rect x="420" y="360" width="760" height="320" rx="30" fill="#3C444A"/>
  <rect x="460" y="400" width="680" height="240" rx="18" fill="#262C31"/>
  <rect x="480" y="430" width="640" height="12" rx="6" fill="#4F5A61"/>
  <rect x="480" y="470" width="640" height="12" rx="6" fill="#4F5A61"/>
  <rect x="480" y="510" width="640" height="12" rx="6" fill="#4F5A61"/>
  <rect x="480" y="550" width="640" height="12" rx="6" fill="#4F5A61"/>
  <rect x="480" y="590" width="640" height="12" rx="6" fill="#4F5A61"/>
  <ellipse cx="620" cy="490" rx="70" ry="34" fill="#E8A03F"/>
  <ellipse cx="760" cy="550" rx="68" ry="32" fill="#D85E35"/>
  <ellipse cx="910" cy="485" rx="74" ry="36" fill="#7FB55B"/>
  <ellipse cx="1030" cy="550" rx="66" ry="30" fill="#E8A03F"/>
  <ellipse cx="860" cy="570" rx="62" ry="28" fill="#E7D061"/>
  <path d="M590 315C605 285 635 270 665 265" stroke="#D0A068" stroke-width="10" stroke-linecap="round"/>
  <path d="M790 305C805 275 835 262 865 258" stroke="#D0A068" stroke-width="10" stroke-linecap="round"/>
  <path d="M980 312C995 282 1025 268 1055 264" stroke="#D0A068" stroke-width="10" stroke-linecap="round"/>
  <text x="120" y="170" fill="#8A4314" font-family="Verdana, sans-serif" font-size="74" font-weight="700">Grilled Veggie Feast</text>
  <text x="120" y="235" fill="#6C5A34" font-family="Verdana, sans-serif" font-size="36">Smoky char, fresh herbs, and bright sides</text>
</svg>
