<svg width="256" height="256" viewBox="0 0 256 256" fill="none" xmlns="http://www.w3.org/2000/svg">
  <rect width="256" height="256" rx="56" fill="#BF5518"/>
  <path d="M73 140C73 117.909 90.909 100 113 100H116C123.18 88.2645 136.179 80 151 80C173.091 80 191 97.9086 191 120C191 120.678 190.983 121.351 190.949 122.019C203.388 124.911 212 136.047 212 149C212 164.464 199.464 177 184 177H102C86.5359 177 74 164.464 74 149C74 146.014 74.4673 143.139 75.3345 140.442C74.5579 140.149 73.7865 139.834 73 140Z" fill="white"/>
  <path d="M136 94C136 83.5066 144.507 75 155 75C165.493 75 174 83.5066 174 94V104H136V94Z" fill="#F59E0B"/>
  <rect x="129" y="104" width="52" height="8" rx="4" fill="#F59E0B"/>
  <circle cx="148" cy="140" r="7" fill="#BF5518"/>
  <circle cx="168" cy="140" r="7" fill="#BF5518"/>
  <path d="M141 158C145.5 164.5 153.5 168 161.5 168C169.5 168 177 164.5 181.5 158" stroke="#BF5518" stroke-width="6" stroke-linecap="round"/>
</svg>
